<svg version="1.1" id="Layer_1" xmlns="http://www.w3.org/2000/svg" xmlns:xlink="http://www.w3.org/1999/xlink" x="0px" y="0px"
	 width="100%" viewBox="0 0 461 239" enable-background="new 0 0 461 239" xml:space="preserve">
<path fill="#FEFEFE" opacity="1.000000" stroke="none" 
	d="
M335.000000,240.000000 
	C223.333359,240.000000 112.166710,240.000000 1.000045,240.000000 
	C1.000030,160.333374 1.000030,80.666733 1.000015,1.000077 
	C154.666611,1.000051 308.333221,1.000051 461.999878,1.000026 
	C461.999908,80.666588 461.999908,160.333176 461.999939,239.999878 
	C419.833344,240.000000 377.666656,240.000000 335.000000,240.000000 
M187.461761,120.933678 
	C197.501740,110.717018 207.472946,100.431160 217.632034,90.334343 
	C220.048843,87.932358 221.102524,85.550652 221.086151,82.080231 
	C220.974594,58.426582 221.098755,34.771820 221.146103,11.117415 
	C221.149292,9.527715 221.146530,7.938001 221.146530,6.348293 
	C221.441940,6.807392 221.737335,7.266490 222.032745,7.725589 
	C196.920059,31.941257 171.807373,56.156925 146.001007,80.283264 
	C139.563904,74.153061 133.126801,68.022858 126.609039,61.815842 
	C126.357834,62.346264 126.124634,62.610691 126.121384,62.877914 
	C125.813454,88.191101 125.466988,113.504242 125.347916,138.818451 
	C125.339272,140.656052 126.575157,142.913101 127.931549,144.282761 
	C157.817108,174.460114 187.799011,204.542068 217.780243,234.624573 
	C218.604736,235.451859 219.625107,236.083923 220.999222,237.153427 
	C220.999222,212.890945 220.697540,189.404373 221.181351,165.934006 
	C221.328232,158.807709 219.258636,153.911301 214.115265,149.094147 
	C204.661469,140.239929 195.907852,130.638077 187.461761,120.933678 
M7.632026,190.444122 
	C18.285908,190.444122 28.939789,190.444122 40.013084,190.444122 
	C40.425652,189.104843 40.953407,187.554672 41.380432,185.977249 
	C43.249760,179.071899 44.998024,172.131516 47.023849,165.272858 
	C47.396236,164.012115 48.836929,162.138733 49.809250,162.123459 
	C63.109440,161.914566 76.413986,161.982727 89.766396,161.982727 
	C91.938736,170.261230 94.090240,178.116379 96.031769,186.023102 
	C96.845154,189.335526 98.098701,191.034424 102.053329,190.880615 
	C111.368546,190.518311 120.707542,190.784058 130.036682,190.743149 
	C131.255234,190.737808 132.472427,190.423553 133.933334,190.218201 
	C133.527771,188.410675 133.308228,187.113892 132.944839,185.858780 
	C120.273209,142.091949 107.576080,98.332458 94.933311,54.557285 
	C94.142792,51.820110 92.912201,50.524372 89.769035,50.565918 
	C75.444458,50.755249 61.116264,50.659737 46.789555,50.713863 
	C44.859047,50.721153 42.929550,50.996414 41.363392,51.119091 
	C41.585438,54.225086 42.245037,56.826057 41.839973,59.249054 
	C41.130352,63.493916 39.842316,67.650726 38.666756,71.807709 
	C27.896088,109.894661 17.081644,147.969269 6.375494,186.074310 
	C6.016769,187.351074 6.669619,188.912048 7.632026,190.444122 
M439.945068,147.480011 
	C445.818878,126.451195 451.692688,105.422371 457.619049,84.205444 
	C445.119720,84.205444 433.169067,84.205444 421.000946,84.205444 
	C415.627289,105.459824 410.282562,126.599693 404.937866,147.739563 
	C403.322357,145.349228 402.515228,143.014175 401.863708,140.636490 
	C397.118774,123.320007 392.326996,106.015556 387.748047,88.655067 
	C386.843628,85.226234 385.495544,83.836891 381.691559,83.924950 
	C369.541229,84.206230 357.380127,84.015739 345.223236,84.035576 
	C344.046600,84.037491 342.870331,84.234825 340.681030,84.433243 
	C347.612244,88.119125 350.826996,93.309402 352.846344,99.581055 
	C360.539917,123.475601 368.390045,147.319687 376.145111,171.194504 
	C378.242798,177.652420 380.211609,184.152176 382.295837,190.812576 
	C396.889282,190.812576 411.200378,190.900101 425.505859,190.658127 
	C426.744690,190.637192 428.649811,188.641724 429.056152,187.222855 
	C432.763306,174.278427 436.206573,161.258469 439.945068,147.480011 
M236.540985,84.028931 
	C232.899338,84.028931 229.257675,84.028931 225.979248,84.028931 
	C226.335953,87.033539 226.937973,89.787384 226.947922,92.543358 
	C227.059875,123.537186 227.190536,154.531998 227.010101,185.524750 
	C226.982468,190.273254 228.427597,191.470886 232.928925,191.306870 
	C241.748901,190.985443 250.594742,191.022736 259.417969,191.296310 
	C263.533173,191.423935 264.865234,190.204575 264.802429,185.979126 
	C264.591888,171.819077 264.267090,157.627029 264.964661,143.495544 
	C265.868835,125.178879 274.630768,116.979263 291.303650,117.058289 
	C292.717743,117.064995 294.132812,116.857002 295.655365,116.740494 
	C295.655365,105.336395 295.655365,94.394363 295.655365,83.203712 
	C289.129120,82.363609 282.999390,83.816048 277.945892,87.195732 
	C272.945984,90.539589 268.939667,95.369156 264.471191,99.571785 
	C264.471191,94.845543 264.471191,89.589737 264.471191,84.028938 
	C255.158905,84.028938 246.343048,84.028938 236.540985,84.028931 
M328.443970,190.650330 
	C331.556580,190.650330 334.669189,190.650330 337.831360,190.650330 
	C337.831360,154.773193 337.831360,119.566040 337.831360,84.189896 
	C325.052094,84.189896 312.605743,84.189896 301.338501,84.189896 
	C301.338501,119.607704 301.338501,154.914627 301.338501,190.650177 
	C310.862305,190.650177 319.161621,190.650177 328.443970,190.650330 
M304.744568,73.859940 
	C311.242889,73.859779 317.742218,73.928322 324.239227,73.836212 
	C328.856628,73.770760 335.150726,75.212418 337.610840,72.815048 
	C340.036011,70.451721 338.676117,64.105583 338.795593,59.502163 
	C338.918671,54.760544 338.822876,50.013237 338.822876,45.375443 
	C325.952972,45.375443 314.029266,45.375443 301.692230,45.375443 
	C301.692230,54.167007 301.627411,62.638966 301.784363,71.106812 
	C301.801605,72.036858 303.091370,72.943306 304.744568,73.859940 
z"/>
<path fill="#03589F" opacity="1.000000" stroke="none" 
	d="
M7.241486,190.392334 
	C6.669619,188.912048 6.016769,187.351074 6.375494,186.074310 
	C17.081644,147.969269 27.896088,109.894661 38.666756,71.807709 
	C39.842316,67.650726 41.130352,63.493916 41.839973,59.249054 
	C42.245037,56.826057 41.585438,54.225086 41.363392,51.119091 
	C42.929550,50.996414 44.859047,50.721153 46.789555,50.713863 
	C61.116264,50.659737 75.444458,50.755249 89.769035,50.565918 
	C92.912201,50.524372 94.142792,51.820110 94.933311,54.557285 
	C107.576080,98.332458 120.273209,142.091949 132.944839,185.858780 
	C133.308228,187.113892 133.527771,188.410675 133.933334,190.218201 
	C132.472427,190.423553 131.255234,190.737808 130.036682,190.743149 
	C120.707542,190.784058 111.368546,190.518311 102.053329,190.880615 
	C98.098701,191.034424 96.845154,189.335526 96.031769,186.023102 
	C94.090240,178.116379 91.938736,170.261230 89.766396,161.982727 
	C76.413986,161.982727 63.109440,161.914566 49.809250,162.123459 
	C48.836929,162.138733 47.396236,164.012115 47.023849,165.272858 
	C44.998024,172.131516 43.249760,179.071899 41.380432,185.977249 
	C40.953407,187.554672 40.425652,189.104843 40.013084,190.444122 
	C28.939789,190.444122 18.285908,190.444122 7.241486,190.392334 
M56.915798,130.128815 
	C57.298794,131.113922 57.663429,132.949646 58.067505,132.958374 
	C65.920364,133.127914 73.777840,133.084137 82.159683,133.084137 
	C77.736404,116.322784 73.534615,100.400719 69.332825,84.478653 
	C68.986130,84.520592 68.639435,84.562523 68.292747,84.604454 
	C64.551132,99.516617 60.809513,114.428772 56.915798,130.128815 
z"/>
<path fill="#01B5F8" opacity="1.000000" stroke="none" 
	d="
M186.862381,121.347855 
	C195.907852,130.638077 204.661469,140.239929 214.115265,149.094147 
	C219.258636,153.911301 221.328232,158.807709 221.181351,165.934006 
	C220.697540,189.404373 220.999222,212.890945 220.999222,237.153427 
	C219.625107,236.083923 218.604736,235.451859 217.780243,234.624573 
	C187.799011,204.542068 157.817108,174.460114 127.931549,144.282761 
	C126.575157,142.913101 125.339272,140.656052 125.347916,138.818451 
	C125.466988,113.504242 125.813454,88.191101 126.121384,62.877914 
	C126.124634,62.610691 126.357834,62.346264 126.609039,61.815842 
	C133.126801,68.022858 139.563904,74.153061 146.463257,80.634613 
	C154.712219,89.171425 162.402069,97.452087 170.319489,105.509109 
	C175.667831,110.951775 181.336823,116.079338 186.862381,121.347855 
z"/>
<path fill="#03589F" opacity="1.000000" stroke="none" 
	d="
M439.835999,147.870285 
	C436.206573,161.258469 432.763306,174.278427 429.056152,187.222855 
	C428.649811,188.641724 426.744690,190.637192 425.505859,190.658127 
	C411.200378,190.900101 396.889282,190.812576 382.295837,190.812576 
	C380.211609,184.152176 378.242798,177.652420 376.145111,171.194504 
	C368.390045,147.319687 360.539917,123.475601 352.846344,99.581055 
	C350.826996,93.309402 347.612244,88.119125 340.681030,84.433243 
	C342.870331,84.234825 344.046600,84.037491 345.223236,84.035576 
	C357.380127,84.015739 369.541229,84.206230 381.691559,83.924950 
	C385.495544,83.836891 386.843628,85.226234 387.748047,88.655067 
	C392.326996,106.015556 397.118774,123.320007 401.863708,140.636490 
	C402.515228,143.014175 403.322357,145.349228 404.937866,147.739563 
	C410.282562,126.599693 415.627289,105.459824 421.000946,84.205444 
	C433.169067,84.205444 445.119720,84.205444 457.619049,84.205444 
	C451.692688,105.422371 445.818878,126.451195 439.835999,147.870285 
z"/>
<path fill="#0458A0" opacity="1.000000" stroke="none" 
	d="
M237.034088,84.028931 
	C246.343048,84.028938 255.158905,84.028938 264.471191,84.028938 
	C264.471191,89.589737 264.471191,94.845543 264.471191,99.571785 
	C268.939667,95.369156 272.945984,90.539589 277.945892,87.195732 
	C282.999390,83.816048 289.129120,82.363609 295.655365,83.203712 
	C295.655365,94.394363 295.655365,105.336395 295.655365,116.740494 
	C294.132812,116.857002 292.717743,117.064995 291.303650,117.058289 
	C274.630768,116.979263 265.868835,125.178879 264.964661,143.495544 
	C264.267090,157.627029 264.591888,171.819077 264.802429,185.979126 
	C264.865234,190.204575 263.533173,191.423935 259.417969,191.296310 
	C250.594742,191.022736 241.748901,190.985443 232.928925,191.306870 
	C228.427597,191.470886 226.982468,190.273254 227.010101,185.524750 
	C227.190536,154.531998 227.059875,123.537186 226.947922,92.543358 
	C226.937973,89.787384 226.335953,87.033539 225.979248,84.028931 
	C229.257675,84.028931 232.899338,84.028931 237.034088,84.028931 
z"/>
<path fill="#01579F" opacity="1.000000" stroke="none" 
	d="
M187.162079,121.140762 
	C181.336823,116.079338 175.667831,110.951775 170.319489,105.509109 
	C162.402069,97.452087 154.712219,89.171425 146.810089,80.679283 
	C171.807373,56.156925 196.920059,31.941257 222.032745,7.725589 
	C221.737335,7.266490 221.441940,6.807392 221.146530,6.348293 
	C221.146530,7.938001 221.149292,9.527715 221.146103,11.117415 
	C221.098755,34.771820 220.974594,58.426582 221.086151,82.080231 
	C221.102524,85.550652 220.048843,87.932358 217.632034,90.334343 
	C207.472946,100.431160 197.501740,110.717018 187.162079,121.140762 
z"/>
<path fill="#02579F" opacity="1.000000" stroke="none" 
	d="
M327.952454,190.650253 
	C319.161621,190.650177 310.862305,190.650177 301.338501,190.650177 
	C301.338501,154.914627 301.338501,119.607704 301.338501,84.189896 
	C312.605743,84.189896 325.052094,84.189896 337.831360,84.189896 
	C337.831360,119.566040 337.831360,154.773193 337.831360,190.650330 
	C334.669189,190.650330 331.556580,190.650330 327.952454,190.650253 
z"/>
<path fill="#045AA1" opacity="1.000000" stroke="none" 
	d="
M304.267761,73.860321 
	C303.091370,72.943306 301.801605,72.036858 301.784363,71.106812 
	C301.627411,62.638966 301.692230,54.167007 301.692230,45.375443 
	C314.029266,45.375443 325.952972,45.375443 338.822876,45.375443 
	C338.822876,50.013237 338.918671,54.760544 338.795593,59.502163 
	C338.676117,64.105583 340.036011,70.451721 337.610840,72.815048 
	C335.150726,75.212418 328.856628,73.770760 324.239227,73.836212 
	C317.742218,73.928322 311.242889,73.859779 304.267761,73.860321 
z"/>
<path fill="#F9FAFB" opacity="1.000000" stroke="none" 
	d="
M56.991848,129.734863 
	C60.809513,114.428772 64.551132,99.516617 68.292747,84.604454 
	C68.639435,84.562523 68.986130,84.520592 69.332825,84.478653 
	C73.534615,100.400719 77.736404,116.322784 82.159683,133.084137 
	C73.777840,133.084137 65.920364,133.127914 58.067505,132.958374 
	C57.663429,132.949646 57.298794,131.113922 56.991848,129.734863 
z"/>
</svg>